<?xml version="1.0" encoding="utf-8"?>
<!-- Generator: Adobe Illustrator 24.2.0, SVG Export Plug-In . SVG Version: 6.00 Build 0)  -->
<svg version="1.1" id="Capa_2_1_" xmlns="http://www.w3.org/2000/svg" xmlns:xlink="http://www.w3.org/1999/xlink" x="0px" y="0px"
	 viewBox="0 0 560 555" style="enable-background:new 0 0 560 555;" xml:space="preserve">
<style type="text/css">
	.st0{fill:#FDFEFF;}
	.st1{fill:#17243E;}
	.st2{fill:#D8282F;}
	.st3{fill:#FFFFFF;}
	.st4{fill:#152141;}
</style>
<path class="st0" d="M276.7,524.2l-3.7-2.4c-0.8-0.5-70.2-46.2-114.6-81.3c-46.8-37-55.2-53.4-55.2-109.1v-302h346.5v301.9
	c0,55.8-8.2,72.1-55.2,109.1c-44.4,35.1-113.6,80.8-114.3,81.3L276.7,524.2z"/>
<path class="st1" d="M276.7,537.6l-3.9-2.5c-0.8-0.5-75.3-48.4-122.9-85.1c-50.3-38.8-59.1-55.8-59.1-114.1V20.2h371.3V336
	c0,58.3-8.8,75.4-59.1,114.1c-47.6,36.7-121.7,84.6-122.5,85L276.7,537.6z M105.2,34.4v301.4c0,53.4,6.9,66.9,53.5,102.8
	c40.9,31.6,102,71.5,117.9,81.8c15.9-10.4,76.8-50.3,117.7-81.8c46.5-35.9,53.5-49.2,53.5-102.8V34.4H105.2z"/>
<path class="st2" d="M197.6,446.2c29.3,20.5,60.7,40.8,78.7,53.2c17.9-12.5,49.5-32.7,78.9-53.2H197.6z"/>
<path class="st1" d="M120.9,366.8v0.3c3.5,21.2,13.5,32.1,40.9,53.2h229.4c27.5-21.1,37.5-32.1,40.9-53.4L120.9,366.8L120.9,366.8z"
	/>
<rect x="119.1" y="49.3" class="st1" width="314.8" height="52.5"/>
<g>
	<path class="st2" d="M155.2,287.6h-36V341h78.5C179.3,327.4,164.6,308.9,155.2,287.6z"/>
	<path class="st2" d="M397.8,287.6c-9.3,21.3-24.1,39.6-42.6,53.4h78.5c0-2,0-4,0-6.2v-47.1h-36V287.6z"/>
</g>
<g>
	<g>
		<path class="st1" d="M251.4,193.3h50.1c2.9,0,5.4,1.9,6.3,4.5l15.5,47.6c0.9,2.8-0.1,5.7-2.4,7.4l-40.5,29.4
			c-2.3,1.6-5.4,1.6-7.8,0l-40.5-29.4c-2.3-1.6-3.3-4.7-2.4-7.4l15.5-47.6C246,195.2,248.5,193.3,251.4,193.3z"/>
		<path class="st1" d="M276.6,298.7c1.4,0,2.8,0.4,3.9,1.3l38.8,28.2c2,1.4,3,3.8,2.7,6.2c-0.3,2.4-1.9,4.4-4.2,5.3
			c-13.1,5.2-27,7.7-41.3,7.7c-14.3,0-28-2.7-41.3-7.8c-2.3-0.9-3.8-2.9-4.2-5.3c-0.3-2.4,0.8-4.8,2.7-6.2l38.8-28.2
			C273.8,299.2,275.2,298.7,276.6,298.7L276.6,298.7z"/>
		<path class="st1" d="M385.7,222.1c2.1,1,3.7,3.2,3.8,5.6c0.9,14.1-1,28.2-5.3,41.7c-4.4,13.5-11.1,25.9-20.1,36.9
			c-1.5,1.9-3.9,2.8-6.3,2.3s-4.3-2.1-5.1-4.4l-14.8-45.6c-0.9-2.8,0.1-5.7,2.4-7.4l38.8-28.2C382.2,220.3,385.7,222.1,385.7,222.1
			L385.7,222.1z"/>
		<path class="st1" d="M305.1,124.8c13.6,3.5,26.4,9.6,37.9,17.9c11.5,8.3,21.2,18.7,28.8,30.6c1.3,2,1.4,4.7,0.3,6.8
			c-1.1,2.1-3.4,3.4-5.8,3.4h-48c-2.9,0-5.4-1.9-6.3-4.5l-14.8-45.6c-0.8-2.3-0.1-4.8,1.5-6.6C301.1,124.1,304.2,124.6,305.1,124.8
			L305.1,124.8z"/>
	</g>
	<path class="st1" d="M254.5,126.7c1.6,1.8,2.3,4.3,1.5,6.6l-14.8,45.6c-0.9,2.8-3.4,4.5-6.3,4.5h-48c-2.4,0-4.7-1.3-5.8-3.4
		c-1.1-2.1-1.1-4.7,0.3-6.8c7.6-11.9,17.3-22.2,28.8-30.6c11.5-8.3,24.2-14.4,37.9-17.9C248.8,124.6,251.9,124.1,254.5,126.7
		L254.5,126.7z"/>
	<path class="st1" d="M174,222.7l38.8,28.2c2.3,1.6,3.3,4.7,2.4,7.4l-14.8,45.6c-0.8,2.3-2.7,4-5.1,4.4c-2.4,0.5-4.8-0.4-6.3-2.3
		c-9-10.9-15.8-23.2-20.1-36.9c-4.4-13.5-6.2-27.5-5.3-41.7c0.1-2.4,1.6-4.5,3.8-5.6C167.3,222.1,170.8,220.3,174,222.7L174,222.7z"
		/>
</g>
<g>
	<path class="st3" d="M195.8,375.6l-1,2.9l5.9,30.6l1.5,2.4h-10.1l1-2.5l-0.9-5.1h-5.9l-0.9,5.2l0.9,2.5h-10.2l1.5-2.4l5.8-30.4
		l-1-2.9h13.4V375.6z M187.2,397.3h3.8l-1.9-12.2L187.2,397.3z"/>
	<path class="st3" d="M213.7,375.6l-1,3V405h12l0,0l3-1l-0.3,1l-1.3,6.4h-21.7l1-2.7v-30.3l-1-2.9H213.7z"/>
	<path class="st3" d="M240.8,375.6l-1,2.9v30.3l1.3,2.7h-9.7l0.9-2.5l0.1-30.4l-1-2.9H240.8z"/>
	<path class="st3" d="M262.7,375.6l4.8,4.8v3.3l-7.3,3.2v-3.4l-1.3-1.3h-4.5l-1.4,1.4v20.2l1.3,1.3h4.5l1.3-1.4V402l7.3-3.2v8
		l-4.8,4.8h-12.1l-4.8-4.8v-26.3l4.8-4.8h12.2V375.6z"/>
	<path class="st3" d="M289.4,375.6l-1,2.9l5.9,30.6l1.5,2.4h-10.1l1-2.5l-0.9-5.1H280l-0.9,5.2l0.9,2.5h-10.2l1.5-2.4l5.8-30.4
		l-1-2.9h13.4V375.6z M280.9,397.3h3.8l-1.9-12.2L280.9,397.3z"/>
	<path class="st3" d="M297.8,375.7c5.2,0,7.6,0,7.4,0c-0.1,0,2.7,5.7,8.6,16.9v-14.3l-1.1-2.7h8.7l-1,2.7v30.8l1.1,2.4h-6.9l-9-18.6
		v15.9l0,0l1.3,2.7h-9l1-2.7v-30.7L297.8,375.7z"/>
	<path class="st3" d="M348.3,375.6l1.5,7.6l-3-1h-5.4v26.8l1.3,2.7H333l1-2.7v-26.8H329l-3,1l1.5-7.6H348.3z"/>
	<path class="st3" d="M373.4,375.7l1.5,7.6l-3-1h-10v7.7h7.1l2.9-1v8.2l-2.8-0.9h-7.2v8.7h12l0,0l3-1l-1.5,7.6h-21.7l1-2.7v-30.3
		l-1-2.9L373.4,375.7L373.4,375.7z"/>
</g>
<g>
	<path class="st2" d="M355.5,128.3c18.4,13.6,33.1,32.1,42.4,53.3h36v-53.3H355.5z"/>
	<path class="st2" d="M197.5,128.3h-78.4v53.3h36C164.4,160.3,179.2,142,197.5,128.3z"/>
</g>
<g>
	<path class="st4" d="M144.1,234.6c0-9.1,0.9-18.1,2.7-26.6h-27.5v53.2h27.5C145,252.5,144.1,243.7,144.1,234.6z"/>
	<path class="st4" d="M406.2,207.9c1.8,8.6,2.7,17.6,2.7,26.6c0,9.1-0.9,17.9-2.7,26.4h27.5v-53.2h-27.5V207.9z"/>
</g>
<g>
	<g>
		<path class="st3" d="M150.2,61.2l1.3,5.8l-2.3-0.8h-7.8v6.1h5.6l2.3-0.8V78l-2.1-0.8h-5.7v6.8h9.3l0,0l2.3-0.8l-1.1,5.8h-16.9
			l0.8-2V63.5l-0.8-2.3C134.9,61.2,150.2,61.2,150.2,61.2z"/>
		<path class="st3" d="M170.1,61.2l3.8,3.7v20.5l-3.8,3.7h-9.5l-3.7-3.7V64.9l3.7-3.7C160.7,61.2,170.1,61.2,170.1,61.2z
			 M167.2,83.9l1-1.1V67.1l-1-1h-3.5l-1.1,1.1v15.7l1,1H167.2z"/>
		<path class="st3" d="M178.8,61.2c4,0,5.9,0,5.8,0c-0.1,0,2.1,4.4,6.7,13.1V63.2l-0.9-2h6.8l-0.8,2v24l0.9,1.9H192L185,74.6V87l0,0
			l1,2.1h-6.9l0.8-2V63.2L178.8,61.2z"/>
		<path class="st3" d="M228.1,61.2l3.7,3.7v7.6l-2.3,2.3l2.3,2.3v8.5l-3.5,3.5h-14l0.8-1.9V63.4l-0.8-2.1H228.1z M220.5,74.2
			l4.4-2.3l1.1-1.1v-3.2l-1.3-1.1h-4.3V74.2z M220.6,84.2h4.3l1.3-1.1v-4.2l-1.1-1.1l-4.4,2.3V84.2z"/>
		<path class="st3" d="M250.3,61.2l-0.9,2.1l4.5,23.7l1.1,1.9h-8l0.8-2l-0.6-3.9h-4.7l-0.6,4l0.8,1.9h-8l1.1-1.9l4.5-23.7l-0.8-2.3
			h10.6V61.2z M243.6,78.1h3l-1.5-9.5L243.6,78.1z"/>
		<path class="st3" d="M265.8,61.2l-0.8,2.3v20.6h9.3l0,0l2.3-0.8l-0.1,0.8l-1,5.1h-16.9l0.8-2V63.5l-0.8-2.3
			C258.6,61.2,265.8,61.2,265.8,61.2z"/>
		<path class="st3" d="M294.6,61.2l3.8,3.7v20.5l-3.8,3.7h-9.5l-3.7-3.7V64.9l3.7-3.7C285.1,61.2,294.6,61.2,294.6,61.2z
			 M291.7,83.9l1-1.1V67.1l-1-1h-3.5l-1.1,1.1v15.7l1,1H291.7z"/>
		<path class="st3" d="M303.5,61.2c4,0,5.9,0,5.8,0c-0.1,0,2.1,4.4,6.7,13.1V63.2l-0.9-2h6.8l-0.8,2v24l0.9,1.9h-5.4l-6.9-14.5V87
			l0,0l1,2.1h-6.9l0.8-2V63.2L303.5,61.2z"/>
		<path class="st3" d="M350.3,61.2l-0.8,2.3V87l1,2h-6.8l0.8-2.1l0,0V72.2l-3.7,9.8H337l-3.8-9.8v14.6l1,2h-6.8l0.8-2.1V63.5
			l-0.8-2.3h7.3l4,11l4-11C342.9,61.2,350.3,61.2,350.3,61.2z"/>
		<path class="st3" d="M369.2,61.2l-0.8,2.3l4.5,23.7l1.1,1.9h-8l0.8-2l-0.6-3.9h-4.7l-0.6,4l0.8,1.9h-8l1.1-1.9l4.5-23.7l-0.8-2.3
			H369.2z M362.5,78.1h3l-1.5-9.5L362.5,78.1z"/>
		<path class="st3" d="M377.3,61.2c4,0,5.9,0,5.8,0c-0.1,0,2.1,4.4,6.7,13.1V63.2l-0.9-2h6.8l-0.8,2v24l0.9,1.9h-5.4l-6.9-14.5V87
			l0,0l1,2.1h-6.9l0.8-2V63.2L377.3,61.2z"/>
		<path class="st3" d="M414.4,61.2l3.8,3.7v20.5l-3.8,3.7H405l-3.7-3.7V64.9l3.7-3.7C405,61.2,414.4,61.2,414.4,61.2z M411.5,83.9
			l1-1.1V67.1l-1-1H408l-1.1,1.1v15.7l1,1H411.5z"/>
	</g>
	<path class="st3" d="M170.1,56.2l-2.3,2.8c0,0,0,0-0.1,0h-7.2l2.4-2.8H170.1z"/>
</g>
</svg>
